<?xml version="1.0" standalone="no"?>
<!DOCTYPE svg PUBLIC "-//W3C//DTD SVG 20010904//EN"
 "http://www.w3.org/TR/2001/REC-SVG-20010904/DTD/svg10.dtd">
<svg version="1.0" xmlns="http://www.w3.org/2000/svg"
 width="1544.000000pt" height="1544.000000pt" viewBox="0 0 1544.000000 1544.000000"
 preserveAspectRatio="xMidYMid meet">
<metadata>
Created by potrace 1.14, written by Peter Selinger 2001-2017
</metadata>
<g transform="translate(0.000000,1544.000000) scale(0.100000,-0.100000)"
fill="#000000" stroke="none">
<path d="M7830 11455 l0 -2685 895 0 895 0 0 895 0 895 1790 0 1790 0 0 -900
0 -900 900 0 900 0 0 900 0 900 -900 0 -900 0 0 1790 0 1790 -2685 0 -2685 0
0 -2685z"/>
<path d="M350 11445 l0 -2685 2685 0 2685 0 0 -895 0 -895 895 0 895 0 0 895
0 895 -895 0 -895 0 0 2685 0 2685 -2685 0 -2685 0 0 -2685z m3580 0 l0 -895
-895 0 -895 0 0 895 0 895 895 0 895 0 0 -895z"/>
<path d="M384 3830 l-2 -1610 22 -1 c28 -1 1903 -1 1938 0 l27 1 0 330 0 330
-659 0 -660 0 -1 23 c0 21 0 1854 1 1870 0 4 295 7 655 7 l655 0 1 33 c0 17 1
166 2 329 l2 298 -990 0 -990 0 -1 -1610z"/>
<path d="M6640 4587 l0 -332 333 0 333 0 0 332 -1 333 -332 0 -333 0 0 -333z"/>
<path d="M10180 4587 l0 -332 333 0 332 0 0 333 1 332 -333 0 -333 0 0 -333z"/>
<path d="M8085 4258 l0 -653 -330 -5 -330 -5 -1 -323 c0 -177 2 -325 5 -330 3
-4 152 -7 331 -7 l325 0 0 -660 c-1 -445 3 -662 10 -666 5 -3 154 -5 330 -5
l320 1 0 665 0 665 325 2 c179 1 328 2 332 2 3 1 6 150 6 331 l-1 330 -331 0
-331 0 0 324 0 324 640 0 c352 1 650 1 662 1 l22 1 0 330 1 330 -993 0 -992 0
0 -652z"/>
<path d="M5928 4862 c-18 -2 -28 -10 -29 -20 0 -9 -1 -156 -2 -327 l-2 -310
-660 -5 -660 -5 0 -987 c-1 -544 2 -988 5 -989 7 0 1907 -1 1946 0 l31 1 0
1316 c0 1116 -2 1317 -14 1321 -15 6 -570 10 -615 5z m-31 -1652 l0 -330 -331
2 -331 3 0 328 0 327 331 0 332 0 -1 -330z"/>
<path d="M13045 4196 c-2 -6 -3 -452 -2 -991 l2 -980 323 0 c196 -1 326 3 329
9 4 5 6 301 6 657 0 588 1 648 16 651 9 2 305 4 659 3 353 0 643 2 643 5 4 17
3 643 -1 649 -8 12 -1972 9 -1975 -3z"/>
<path d="M2485 3210 l0 -990 25 -1 c33 -1 1875 -1 1922 0 l36 1 0 990 0 990
-991 0 -992 0 0 -990z m1323 0 l-1 -330 -328 0 -329 0 0 63 c-1 110 -1 500 -1
550 l1 47 329 0 329 0 0 -330z"/>
<path d="M6645 3210 l0 -990 35 -1 c45 -1 578 -1 605 0 21 1 21 3 20 989 l0
987 -330 3 -330 2 0 -990z"/>
<path d="M10185 3216 c0 -541 3 -988 7 -992 6 -5 427 -9 619 -5 l35 1 0 990 0
990 -331 0 -330 0 0 -984z"/>
<path d="M10952 3209 l3 -992 328 0 327 0 1 -31 c0 -17 0 -162 0 -323 0 -216
3 -292 12 -295 7 -3 305 -4 662 -4 l650 1 0 330 0 330 -650 1 c-357 1 -655 2
-662 3 -9 1 -12 81 -11 326 l0 325 662 0 662 0 -1 658 0 657 -993 3 -992 2 2
-991z"/>
</g>
</svg>
